<svg xmlns="http://www.w3.org/2000/svg" viewBox="0 0 543.88 980.65"><defs><style>.cls-1{fill:#cdd8d3;}</style></defs><title>Asset 18</title><g id="Layer_2" data-name="Layer 2"><g id="Layer_1-2" data-name="Layer 1"><path class="cls-1" d="M523.44,623.87h0A57.57,57.57,0,0,0,442.58,631L328.75,766.6V57.4A57.4,57.4,0,1,0,214,57.4V765.21L101.3,631a57.4,57.4,0,1,0-87.94,73.79L225.43,957.47a57.44,57.44,0,0,0,41.1,22.94c.52,0,1,0,1.56.08,1.09.06,2.16.16,3.27.16h.58c.58,0,1.15,0,1.73-.07a57.24,57.24,0,0,0,42.47-20.35L530.52,704.74A57.58,57.58,0,0,0,523.44,623.87Z"/></g></g></svg>