<svg xmlns="http://www.w3.org/2000/svg" viewBox="0 0 642.28 1043.96"><defs><style>.cls-1{fill:#fff;}</style></defs><title>Asset 6</title><g id="Layer_2" data-name="Layer 2"><g id="Layer_1-2" data-name="Layer 1"><path class="cls-1" d="M336.45,1.93A4.73,4.73,0,0,0,329,1.69C291.74,48,0,419.08,0,689.76,0,978.9,188.05,1044,332.91,1044s309.37-34,309.37-323.13C642.28,449.93,370.72,51.18,336.45,1.93ZM224.72,242.24c-45.63,81.21-126.91,291.49-116,217.83C127,337.8,234.52,185.63,269.67,146.74,296.31,117.26,248.26,200.34,224.72,242.24ZM338,973.42c-146.07,0,60.56-12.39,142.47-93C568.12,794,583.66,632,583.66,731.35,583.66,865,473.66,973.42,338,973.42Z"/></g></g></svg>