<svg xmlns="http://www.w3.org/2000/svg" viewBox="0 0 705.64 1020"><defs><style>.cls-1{fill:#fff;}</style></defs><title>Asset 16</title><g id="Layer_2" data-name="Layer 2"><g id="Layer_1-2" data-name="Layer 1"><path class="cls-1" d="M369.64,1.89a5.61,5.61,0,0,0-8.17-.24C320.52,46.89,0,409.46,0,673.92,0,956.43,206.6,1020,365.75,1020s339.89-33.21,339.89-315.72C705.64,439.6,407.3,50,369.64,1.89ZM246.89,236.68C196.76,316,107.45,521.48,119.49,449.51c20-119.47,138.17-268.14,176.78-306.14C325.54,114.57,272.75,195.74,246.89,236.68ZM371.3,951.08c-160.48,0,66.54-12.11,156.53-90.92,96.34-84.37,113.41-242.64,113.41-145.6C641.24,845.18,520.39,951.08,371.3,951.08Z"/></g></g></svg>