<svg xmlns="http://www.w3.org/2000/svg" viewBox="0 0 705.53 1027.89"><defs><style>.cls-1{fill:#fff;}</style></defs><title>Asset 7</title><g id="Layer_2" data-name="Layer 2"><g id="Layer_1-2" data-name="Layer 1"><path class="cls-1" d="M649.18,131.25h-583c-22.91,0-41.48,21.81-41.48,48.71V790c0,131.37,90.7,237.85,202.59,237.85H488.64c111.1,0,201.17-105.73,201.17-236.16V179C689.81,152.61,671.62,131.25,649.18,131.25ZM613.6,626.51c-2.52,124,2,210.37-35.26,279.25-26.82,49.53-69.09,42.51-107.68,42.62-31.32.09,54-11.33,79.57-122.81,16.55-72,11.14-216.14,14.06-298.11,7.25-203.59,41.76-350.85,48.69-327.15C621.66,230,621.66,230,613.6,626.51Z"/><path class="cls-1" d="M705.53,79.09V18.24C705.53,8.17,698.57,0,690,0H15.54C7,0,0,8.17,0,18.24V79.09Z"/><path class="cls-1" d="M.09,88.77c.25,9.82,7,17.72,15.45,17.72H690c8.42,0,15.2-7.9,15.45-17.72Z"/></g></g></svg>