<svg xmlns="http://www.w3.org/2000/svg" viewBox="0 0 700.11 1020"><defs><style>.cls-1{fill:#fff;}</style></defs><title>Asset 17</title><g id="Layer_2" data-name="Layer 2"><g id="Layer_1-2" data-name="Layer 1"><path class="cls-1" d="M644.19,130.24H65.63c-22.73,0-41.16,21.64-41.16,48.33V784c0,130.35,90,236,201,236H484.89c110.25,0,199.62-104.92,199.62-234.35V177.58C684.51,151.44,666.46,130.24,644.19,130.24ZM608.88,621.69c-2.5,123,2,208.76-35,277.11C547.28,948,505.34,941,467,941.1c-31.07.08,53.55-11.25,79-121.87,16.42-71.47,11-214.48,14-295.82,7.19-202,41.43-348.16,48.32-324.64C616.88,228.18,616.88,228.18,608.88,621.69Z"/><path class="cls-1" d="M700.11,78.49V18.1c0-10-6.91-18.1-15.42-18.1H15.42C6.9,0,0,8.1,0,18.1V78.49Z"/><path class="cls-1" d="M.09,88.09c.24,9.75,7,17.59,15.33,17.59H684.69c8.36,0,15.08-7.84,15.33-17.59Z"/></g></g></svg>