<svg xmlns="http://www.w3.org/2000/svg" viewBox="0 0 724.33 1027.89"><defs><style>.cls-1{fill:#fff;}</style></defs><title>Asset 9</title><g id="Layer_2" data-name="Layer 2"><g id="Layer_1-2" data-name="Layer 1"><path class="cls-1" d="M361.55,457.77l72.27-105.6c6.33-9.26-8-19.66-15.06-10.95-54.88,67.38-83,92.85-152.13,192.35-49.17,70.81-92.34,172.93-127.5,251.28-35,77.91-61.06,157.74-81.65,240.05l-1.92,3a81.7,81.7,0,0,1-24.25-23.76,6.5,6.5,0,0,1-.82-5.17c15.84-59.5,32.64-114.74,57.93-172.59l-.62-10-.2-.35a6.54,6.54,0,0,0-.85-1.18C42.35,765.81,8.78,700.69,1.5,632c-8.87-83.76,22.83-168.21,63-243,42.52-79.1,107.12-146.24,176.57-201,64-50.45,136.08-85.58,209.44-116.38,70.31-29.51,145-48.81,218.06-66.45,6.74-1.65,13.47-3.44,20.21-5.12l.33,2c2.43,9.16,4.51,18.41,6.77,27.62,18.19,73.8,29.42,147.75,28.35,225.44-1.76,126.61-29.19,267.73-88.83,384.7-53.35,104.64-152.75,211.38-265.77,246-71.66,22-140.76,6.49-205.13-21.34a11.51,11.51,0,0,1-6.84-13.23C173.31,791.53,197,731.86,224.09,676c29.4-60.63,67.85-117.53,106.17-173.36C340.81,487.22,351.06,472.4,361.55,457.77Z"/></g></g></svg>