<svg xmlns="http://www.w3.org/2000/svg" viewBox="0 0 177.49 226.11"><defs><style>.cls-1{fill:#cdd8d3;}</style></defs><title>Asset 4</title><g id="Layer_2" data-name="Layer 2"><g id="Layer_1-2" data-name="Layer 1"><path class="cls-1" d="M146.39,70.53A64.39,64.39,0,0,0,177.25,50h.05A87.41,87.41,0,0,0,165.65,0c-7,38.32-41.78,51.63-73.67,66.13C59.72,80.8,19,82.64,4.18,120.71c-7.73,19.9-4.31,42.48,6.74,60.34,6.09-45.17,51.84-59.71,86.2-78,4.46-2.37,8.64-5.19,12.65-7.75l.08.12c-10.12,7.88-21,13.93-31.8,20.76-19.6,12.42-37,20.49-50.46,40.42C13.74,177.2,8.84,201.6,9.91,226.11a14.51,14.51,0,0,0,6.62-4.85l-.08,0a138.76,138.76,0,0,1,3.92-32l.07-.14C43.08,201,72.2,204.67,96.83,195.9a89.31,89.31,0,0,0,18-9.27A50,50,0,0,1,95,157.24c5.84,11.54,17.15,19.59,29.74,22.52a96.17,96.17,0,0,0,33.46-43.1h-.74c-14.31-.43-25.68-7.68-31.6-20.57,9.52,9.39,25,12.28,39.1,7.07a112.58,112.58,0,0,0,12.38-58.54c-8.55,6-20.31,8.17-30.9,5.91Z"/></g></g></svg>