<svg xmlns="http://www.w3.org/2000/svg" viewBox="0 0 510.42 1035.93"><defs><style>.cls-1{fill:#fff;}</style></defs><title>Asset 8</title><g id="Layer_2" data-name="Layer 2"><g id="Layer_1-2" data-name="Layer 1"><path class="cls-1" d="M241.73,479.63l11.63-109.34c1-9.59-13.35-11.71-15.13-2.23-13.77,73.3-24.36,104-36,207.44-8.31,73.61-.2,168.54,4.54,242.21,4.7,73.27,16.6,144.39,33.42,215.17l-.23,3a64.78,64.78,0,0,1-26.74-8.24,5.52,5.52,0,0,1-2.59-3.6C199.12,972.54,190,923.84,186,869.71l-4.29-7.3-.28-.19a4.91,4.91,0,0,0-1.07-.55C129.27,842.36,79.83,806.51,48.07,757.32,9.34,697.34-.26,620.43,0,547.4.3,470.2,21.22,393.14,50.4,323.52,77.28,259.38,116,203.58,157.27,150.58,196.82,99.78,243.51,55,289.62,12.05c4.25-4,8.43-8,12.67-12l1,1.41c5.3,6,10.37,12.15,15.56,18.22,41.64,48.67,78.29,100.25,107.48,159.65,47.56,96.8,82.11,215,84,327.85,1.71,101-29.14,222.13-97.66,294.09-43.43,45.64-99.48,61.79-156.85,66.67a9.49,9.49,0,0,1-10.06-7.28C234.07,809,228.2,754.13,226.3,700.77c-2.08-57.89,3.83-116.6,10.06-174.46C238.07,510.36,239.77,495,241.73,479.63Z"/></g></g></svg>