<svg xmlns="http://www.w3.org/2000/svg" viewBox="0 0 700.02 1020"><defs><style>.cls-1{fill:#cdd8d3;}</style></defs><title>Asset 12</title><g id="Layer_2" data-name="Layer 2"><g id="Layer_1-2" data-name="Layer 1"><path class="cls-1" d="M349.41,454.25l69.85-104.79c6.12-9.19-7.7-19.5-14.55-10.86-53,66.86-80.26,92.13-147,190.87-47.52,70.27-89.24,171.6-123.22,249.35-33.81,77.32-59,156.53-78.91,238.21l-1.85,3a80,80,0,0,1-23.44-23.58,6.58,6.58,0,0,1-.79-5.14c15.31-59,31.54-113.85,56-171.26l-.6-9.87c-.07-.13-.13-.25-.19-.35a6,6,0,0,0-.82-1.17C40.93,759.93,8.48,695.31,1.45,627.16-7.13,544,23.52,460.23,62.37,386,103.45,307.49,165.89,240.86,233,186.51,294.82,136.44,364.53,101.58,435.42,71,503.37,41.74,575.58,22.59,646.16,5.08c6.51-1.63,13-3.41,19.53-5.08L666,2c2.35,9.09,4.36,18.27,6.55,27.4C690.14,102.66,701,176,700,253.13c-1.69,125.64-28.2,265.67-85.85,381.75C562.54,738.71,466.48,844.64,357.26,879c-69.26,21.81-136,6.43-198.26-21.18a11.51,11.51,0,0,1-6.6-13.13c15.09-59.27,38-118.48,64.17-173.92,28.41-60.17,65.57-116.63,102.61-172C329.38,483.48,339.28,468.77,349.41,454.25Z"/></g></g></svg>