<svg xmlns="http://www.w3.org/2000/svg" viewBox="0 0 543.88 980.65"><defs><style>.cls-1{fill:#cdd8d3;}</style></defs><title>Asset 18</title><g id="Layer_2" data-name="Layer 2"><g id="Layer_1-2" data-name="Layer 1"><path class="cls-1" d="M20.44,356.78h0a57.56,57.56,0,0,0,80.86-7.08L215.12,214.06v709.2a57.4,57.4,0,0,0,114.8,0V215.45L442.58,349.7a57.39,57.39,0,1,0,87.93-73.78L318.45,23.19A57.37,57.37,0,0,0,277.35.25c-.52,0-1,0-1.57-.08C274.7.1,273.62,0,272.52,0h-.58c-.58,0-1.16,0-1.74.07a57.25,57.25,0,0,0-42.47,20.36L13.36,275.92A57.56,57.56,0,0,0,20.44,356.78Z"/></g></g></svg>